<svg width="109" height="109" viewBox="0 0 109 109" fill="none" xmlns="http://www.w3.org/2000/svg">
<path d="M40.875 74.9375H12.7734C12.0959 74.9375 11.4461 74.6683 10.967 74.1893C10.4879 73.7102 10.2188 73.0604 10.2188 72.3828V44.2812C10.2188 36.1507 13.4486 28.3532 19.1978 22.604C24.9469 16.8548 32.7445 13.625 40.875 13.625V13.625C49.0055 13.625 56.8031 16.8548 62.5522 22.604C68.3014 28.3532 71.5312 36.1507 71.5312 44.2812V44.2812C71.5312 52.4118 68.3014 60.2093 62.5522 65.9585C56.8031 71.7077 49.0055 74.9375 40.875 74.9375V74.9375Z" stroke="#22c55e" stroke-width="2" stroke-linecap="round" stroke-linejoin="round"/>
<path d="M39.2128 74.9356C41.3264 80.9138 45.2418 86.0895 50.4195 89.7498C55.5972 93.41 61.7826 95.3747 68.1234 95.3731H96.225C96.9025 95.3731 97.5523 95.104 98.0314 94.6249C98.5105 94.1458 98.7797 93.496 98.7797 92.8184V64.7169C98.7906 56.8703 95.7883 49.3191 90.3925 43.6222C84.9968 37.9254 77.6195 34.5178 69.7839 34.1031" stroke="#22c55e" stroke-width="2" stroke-linecap="round" stroke-linejoin="round"/>
</svg>
