<svg width="91" height="85" viewBox="0 0 91 85" fill="none" xmlns="http://www.w3.org/2000/svg">
<path d="M30.2128 62.9356C32.3264 68.9138 36.2418 74.0895 41.4195 77.7498C46.5972 81.41 52.7826 83.3747 59.1234 83.3731H87.225C87.9025 83.3731 88.5523 83.104 89.0314 82.6249C89.5105 82.1458 89.7797 81.496 89.7797 80.8184V52.7169C89.7906 44.8703 86.7883 37.3191 81.3925 31.6222C75.9968 25.9254 68.6195 22.5178 60.7839 22.1031" fill="#22C55E"/>
<path d="M30.2128 62.9356C32.3264 68.9138 36.2418 74.0895 41.4195 77.7498C46.5972 81.41 52.7826 83.3747 59.1234 83.3731H87.225C87.9025 83.3731 88.5523 83.104 89.0314 82.6249C89.5105 82.1458 89.7797 81.496 89.7797 80.8184V52.7169C89.7906 44.8703 86.7883 37.3191 81.3925 31.6222C75.9968 25.9254 68.6195 22.5178 60.7839 22.1031" stroke="#22C55E" stroke-width="2" stroke-linecap="round" stroke-linejoin="round"/>
<path d="M31.875 62.9375H3.77344C3.09589 62.9375 2.4461 62.6683 1.967 62.1893C1.4879 61.7102 1.21875 61.0604 1.21875 60.3828V32.2812C1.21875 24.1507 4.4486 16.3532 10.1978 10.604C15.9469 4.85485 23.7445 1.625 31.875 1.625V1.625C40.0055 1.625 47.8031 4.85485 53.5522 10.604C59.3014 16.3532 62.5312 24.1507 62.5312 32.2812V32.2812C62.5312 40.4118 59.3014 48.2093 53.5522 53.9585C47.8031 59.7077 40.0055 62.9375 31.875 62.9375V62.9375Z" fill="#E4E4E7" stroke="#22C55E" stroke-width="2" stroke-linecap="round" stroke-linejoin="round"/>
</svg>
