<svg width="399" height="109" viewBox="0 0 399 109" fill="none" xmlns="http://www.w3.org/2000/svg">
<rect width="399" height="109" rx="20" fill="#0D1117"/>
<rect width="399" height="109" rx="20" fill="#0D1117" fill-opacity="0.49"/>
<path d="M39.2128 74.9356C41.3264 80.9138 45.2418 86.0895 50.4195 89.7498C55.5972 93.41 61.7826 95.3747 68.1234 95.3731H96.225C96.9025 95.3731 97.5523 95.104 98.0314 94.6249C98.5105 94.1458 98.7797 93.496 98.7797 92.8184V64.7169C98.7906 56.8703 95.7883 49.3191 90.3925 43.6222C84.9968 37.9254 77.6195 34.5178 69.7839 34.1031" fill="#22C55E"/>
<path d="M39.2128 74.9356C41.3264 80.9138 45.2418 86.0895 50.4195 89.7498C55.5972 93.41 61.7826 95.3747 68.1234 95.3731H96.225C96.9025 95.3731 97.5523 95.104 98.0314 94.6249C98.5105 94.1458 98.7797 93.496 98.7797 92.8184V64.7169C98.7906 56.8703 95.7883 49.3191 90.3925 43.6222C84.9968 37.9254 77.6195 34.5178 69.7839 34.1031" stroke="#22C55E" stroke-width="2" stroke-linecap="round" stroke-linejoin="round"/>
<path d="M40.875 74.9375H12.7734C12.0959 74.9375 11.4461 74.6683 10.967 74.1893C10.4879 73.7102 10.2188 73.0604 10.2188 72.3828V44.2812C10.2188 36.1507 13.4486 28.3532 19.1978 22.604C24.9469 16.8548 32.7445 13.625 40.875 13.625V13.625C49.0055 13.625 56.8031 16.8548 62.5522 22.604C68.3014 28.3532 71.5312 36.1507 71.5312 44.2812V44.2812C71.5312 52.4118 68.3014 60.2093 62.5522 65.9585C56.8031 71.7077 49.0055 74.9375 40.875 74.9375V74.9375Z" fill="#E4E4E7" stroke="#22C55E" stroke-width="2" stroke-linecap="round" stroke-linejoin="round"/>
<path d="M140.389 61.4346H150.024C149.831 64.5928 148.961 67.3965 147.414 69.8457C145.889 72.2949 143.751 74.207 141.001 75.582C138.272 76.957 134.985 77.6445 131.14 77.6445C128.132 77.6445 125.436 77.1289 123.051 76.0977C120.666 75.0449 118.625 73.541 116.928 71.5859C115.252 69.6309 113.974 67.2676 113.093 64.4961C112.212 61.7246 111.771 58.6201 111.771 55.1826V51.9277C111.771 48.4902 112.223 45.3857 113.125 42.6143C114.049 39.8213 115.359 37.4473 117.057 35.4922C118.775 33.5371 120.827 32.0332 123.212 30.9805C125.597 29.9277 128.261 29.4014 131.204 29.4014C135.114 29.4014 138.412 30.1104 141.098 31.5283C143.805 32.9463 145.899 34.9014 147.382 37.3936C148.886 39.8857 149.788 42.7217 150.089 45.9014H140.421C140.313 44.0107 139.938 42.4102 139.293 41.0996C138.648 39.7676 137.671 38.7686 136.36 38.1025C135.071 37.415 133.353 37.0713 131.204 37.0713C129.593 37.0713 128.186 37.3721 126.982 37.9736C125.779 38.5752 124.77 39.4883 123.953 40.7129C123.137 41.9375 122.524 43.4844 122.116 45.3535C121.729 47.2012 121.536 49.3711 121.536 51.8633V55.1826C121.536 57.6104 121.719 59.748 122.084 61.5957C122.449 63.4219 123.008 64.9688 123.76 66.2363C124.533 67.4824 125.521 68.4277 126.725 69.0723C127.949 69.6953 129.421 70.0068 131.14 70.0068C133.159 70.0068 134.824 69.6846 136.135 69.04C137.445 68.3955 138.444 67.4395 139.132 66.1719C139.841 64.9043 140.26 63.3252 140.389 61.4346ZM164.849 27.5V77H155.567V27.5H164.849ZM163.527 58.3408H160.981C161.003 55.9131 161.325 53.6787 161.948 51.6377C162.571 49.5752 163.463 47.792 164.623 46.2881C165.783 44.7627 167.169 43.5811 168.78 42.7432C170.413 41.9053 172.218 41.4863 174.194 41.4863C175.913 41.4863 177.471 41.7334 178.867 42.2275C180.285 42.7002 181.499 43.4736 182.509 44.5479C183.54 45.6006 184.335 46.9863 184.894 48.7051C185.452 50.4238 185.731 52.5078 185.731 54.957V77H176.386V54.8926C176.386 53.3457 176.16 52.1318 175.709 51.251C175.279 50.3486 174.646 49.7148 173.808 49.3496C172.991 48.9629 171.981 48.7695 170.778 48.7695C169.446 48.7695 168.308 49.0166 167.362 49.5107C166.438 50.0049 165.697 50.6924 165.139 51.5732C164.58 52.4326 164.172 53.4424 163.914 54.6025C163.656 55.7627 163.527 57.0088 163.527 58.3408ZM211.609 69.1367V53.6035C211.609 52.4863 211.427 51.5303 211.062 50.7354C210.696 49.9189 210.127 49.2852 209.354 48.834C208.602 48.3828 207.624 48.1572 206.421 48.1572C205.39 48.1572 204.498 48.3398 203.746 48.7051C202.994 49.0488 202.414 49.5537 202.006 50.2197C201.598 50.8643 201.394 51.627 201.394 52.5078H192.112C192.112 51.0254 192.456 49.6182 193.144 48.2861C193.831 46.9541 194.83 45.7832 196.141 44.7734C197.451 43.7422 199.009 42.9365 200.813 42.3564C202.64 41.7764 204.681 41.4863 206.937 41.4863C209.644 41.4863 212.05 41.9375 214.155 42.8398C216.261 43.7422 217.915 45.0957 219.118 46.9004C220.343 48.7051 220.955 50.9609 220.955 53.668V68.5889C220.955 70.501 221.073 72.0693 221.31 73.2939C221.546 74.4971 221.89 75.5498 222.341 76.4521V77H212.963C212.512 76.0547 212.168 74.873 211.932 73.4551C211.717 72.0156 211.609 70.5762 211.609 69.1367ZM212.834 55.7627L212.898 61.0156H207.71C206.485 61.0156 205.422 61.1553 204.52 61.4346C203.617 61.7139 202.876 62.1113 202.296 62.627C201.716 63.1211 201.286 63.7012 201.007 64.3672C200.749 65.0332 200.62 65.7637 200.62 66.5586C200.62 67.3535 200.803 68.0732 201.168 68.7178C201.533 69.3408 202.06 69.835 202.747 70.2002C203.435 70.5439 204.24 70.7158 205.164 70.7158C206.561 70.7158 207.774 70.4365 208.806 69.8779C209.837 69.3193 210.632 68.6318 211.19 67.8154C211.771 66.999 212.071 66.2256 212.093 65.4951L214.542 69.4268C214.198 70.3076 213.726 71.2207 213.124 72.166C212.544 73.1113 211.803 74.0029 210.9 74.8408C209.998 75.6572 208.913 76.334 207.646 76.8711C206.378 77.3867 204.874 77.6445 203.134 77.6445C200.921 77.6445 198.912 77.2041 197.107 76.3232C195.324 75.4209 193.906 74.1855 192.854 72.6172C191.822 71.0273 191.307 69.2227 191.307 67.2031C191.307 65.377 191.65 63.7549 192.338 62.3369C193.025 60.9189 194.035 59.7266 195.367 58.7598C196.721 57.7715 198.407 57.0303 200.427 56.5361C202.446 56.0205 204.788 55.7627 207.452 55.7627H212.834ZM245.189 42.1309V48.7051H224.887V42.1309H245.189ZM229.914 33.5264H239.195V66.4941C239.195 67.5039 239.324 68.2773 239.582 68.8145C239.861 69.3516 240.27 69.7275 240.807 69.9424C241.344 70.1357 242.021 70.2324 242.837 70.2324C243.417 70.2324 243.933 70.2109 244.384 70.168C244.856 70.1035 245.254 70.0391 245.576 69.9746L245.608 76.8066C244.813 77.0645 243.954 77.2686 243.03 77.4189C242.106 77.5693 241.086 77.6445 239.969 77.6445C237.928 77.6445 236.145 77.3115 234.619 76.6455C233.115 75.958 231.955 74.8623 231.139 73.3584C230.322 71.8545 229.914 69.8779 229.914 67.4287V33.5264ZM268.779 53.2168V60.5H250.571V53.2168H268.779ZM296.172 38.1025L283.41 77H273.13L290.564 30.0781H297.106L296.172 38.1025ZM306.774 77L293.98 38.1025L292.949 30.0781H299.556L317.087 77H306.774ZM306.194 59.5332V67.1064H281.412V59.5332H306.194ZM329.107 48.834V90.4062H319.826V42.1309H328.431L329.107 48.834ZM351.183 59.1787V59.8555C351.183 62.3906 350.882 64.7432 350.28 66.9131C349.7 69.083 348.841 70.9736 347.702 72.585C346.563 74.1748 345.146 75.4209 343.448 76.3232C341.772 77.2041 339.839 77.6445 337.647 77.6445C335.521 77.6445 333.673 77.2148 332.104 76.3555C330.536 75.4961 329.215 74.293 328.141 72.7461C327.088 71.1777 326.239 69.3623 325.595 67.2998C324.95 65.2373 324.456 63.0244 324.112 60.6611V58.8887C324.456 56.3535 324.95 54.0332 325.595 51.9277C326.239 49.8008 327.088 47.9639 328.141 46.417C329.215 44.8486 330.525 43.6348 332.072 42.7754C333.641 41.916 335.478 41.4863 337.583 41.4863C339.796 41.4863 341.74 41.9053 343.416 42.7432C345.113 43.5811 346.531 44.7842 347.67 46.3525C348.83 47.9209 349.7 49.79 350.28 51.96C350.882 54.1299 351.183 56.5361 351.183 59.1787ZM341.869 59.8555V59.1787C341.869 57.6963 341.74 56.332 341.482 55.0859C341.246 53.8184 340.859 52.7119 340.322 51.7666C339.807 50.8213 339.119 50.0908 338.26 49.5752C337.422 49.0381 336.401 48.7695 335.198 48.7695C333.931 48.7695 332.846 48.9736 331.943 49.3818C331.062 49.79 330.343 50.3809 329.784 51.1543C329.226 51.9277 328.807 52.8516 328.527 53.9258C328.248 55 328.076 56.2139 328.012 57.5674V62.0469C328.119 63.6367 328.42 65.0654 328.914 66.333C329.408 67.5791 330.171 68.5674 331.202 69.2979C332.233 70.0283 333.587 70.3936 335.263 70.3936C336.487 70.3936 337.519 70.125 338.356 69.5879C339.194 69.0293 339.871 68.2666 340.387 67.2998C340.924 66.333 341.3 65.2158 341.515 63.9482C341.751 62.6807 341.869 61.3164 341.869 59.8555ZM366.232 48.834V90.4062H356.951V42.1309H365.556L366.232 48.834ZM388.308 59.1787V59.8555C388.308 62.3906 388.007 64.7432 387.405 66.9131C386.825 69.083 385.966 70.9736 384.827 72.585C383.688 74.1748 382.271 75.4209 380.573 76.3232C378.897 77.2041 376.964 77.6445 374.772 77.6445C372.646 77.6445 370.798 77.2148 369.229 76.3555C367.661 75.4961 366.34 74.293 365.266 72.7461C364.213 71.1777 363.364 69.3623 362.72 67.2998C362.075 65.2373 361.581 63.0244 361.237 60.6611V58.8887C361.581 56.3535 362.075 54.0332 362.72 51.9277C363.364 49.8008 364.213 47.9639 365.266 46.417C366.34 44.8486 367.65 43.6348 369.197 42.7754C370.766 41.916 372.603 41.4863 374.708 41.4863C376.921 41.4863 378.865 41.9053 380.541 42.7432C382.238 43.5811 383.656 44.7842 384.795 46.3525C385.955 47.9209 386.825 49.79 387.405 51.96C388.007 54.1299 388.308 56.5361 388.308 59.1787ZM378.994 59.8555V59.1787C378.994 57.6963 378.865 56.332 378.607 55.0859C378.371 53.8184 377.984 52.7119 377.447 51.7666C376.932 50.8213 376.244 50.0908 375.385 49.5752C374.547 49.0381 373.526 48.7695 372.323 48.7695C371.056 48.7695 369.971 48.9736 369.068 49.3818C368.188 49.79 367.468 50.3809 366.909 51.1543C366.351 51.9277 365.932 52.8516 365.652 53.9258C365.373 55 365.201 56.2139 365.137 57.5674V62.0469C365.244 63.6367 365.545 65.0654 366.039 66.333C366.533 67.5791 367.296 68.5674 368.327 69.2979C369.358 70.0283 370.712 70.3936 372.388 70.3936C373.612 70.3936 374.644 70.125 375.481 69.5879C376.319 69.0293 376.996 68.2666 377.512 67.2998C378.049 66.333 378.425 65.2158 378.64 63.9482C378.876 62.6807 378.994 61.3164 378.994 59.8555Z" fill="white"/>
</svg>
