<svg width="90" height="90" viewBox="0 0 90 90" fill="none" xmlns="http://www.w3.org/2000/svg">
<path d="M32.3777 61.8736C34.1229 66.8097 37.3558 71.0832 41.631 74.1054C45.9062 77.1277 51.0133 78.7499 56.2489 78.7486H79.452C80.0114 78.7486 80.548 78.5263 80.9435 78.1308C81.3391 77.7352 81.5614 77.1986 81.5614 76.6392V53.4361C81.5704 46.9573 79.0914 40.7223 74.6362 36.0185C70.181 31.3147 64.0897 28.5011 57.6199 28.1587" fill="#22C55E"/>
<path d="M32.3777 61.8736C34.1229 66.8097 37.3558 71.0832 41.631 74.1054C45.9062 77.1277 51.0133 78.7499 56.2489 78.7486H79.452C80.0114 78.7486 80.548 78.5263 80.9435 78.1308C81.3391 77.7352 81.5614 77.1986 81.5614 76.6392V53.4361C81.5704 46.9573 79.0914 40.7223 74.6362 36.0185C70.181 31.3147 64.0897 28.5011 57.6199 28.1587" stroke="#22C55E" stroke-width="2" stroke-linecap="round" stroke-linejoin="round"/>
<path d="M33.75 61.875H10.5469C9.98743 61.875 9.45091 61.6528 9.05532 61.2572C8.65974 60.8616 8.4375 60.3251 8.4375 59.7656V36.5625C8.4375 29.8492 11.1043 23.4109 15.8514 18.6639C20.5984 13.9168 27.0367 11.25 33.75 11.25V11.25C40.4633 11.25 46.9016 13.9168 51.6486 18.6639C56.3957 23.4109 59.0625 29.8492 59.0625 36.5625V36.5625C59.0625 43.2758 56.3957 49.7141 51.6486 54.4611C46.9016 59.2082 40.4633 61.875 33.75 61.875V61.875Z" fill="#E4E4E7" stroke="#22C55E" stroke-width="2" stroke-linecap="round" stroke-linejoin="round"/>
</svg>
